<svg xmlns="http://www.w3.org/2000/svg" viewBox="0 0 412.72 412.72">
  <path d="M404.72 82.944h-27.2v-9.28c.146-3.673-2.23-6.974-5.76-8a225.345 225.345 0 0 0-57.68-7.36c-32 0-75.6 7.2-107.84 40-32-33.12-75.92-40-107.84-40a225.345 225.345 0 0 0-57.68 7.36c-3.53 1.026-5.906 4.327-5.76 8v9.2H8c-4.418 0-8 3.582-8 8v255.52c0 4.418 3.582 8 8 8a7.9956 7.9956 0 0 0 3.92-1.04c.8-.4 80.8-44.16 192.48-16h1.92c.638.077 1.282.077 1.92 0 112-28.4 192 15.28 192.48 16a8.0003 8.0003 0 0 0 12-6.88V90.944c0-4.418-3.581-8-8-8zM16 333.664V98.944h19.12v200.64c-.05 4.418 3.491 8.04 7.909 8.09.432.005.864-.025 1.291-.09a350.0957 350.0957 0 0 1 50-4c23.19-.402 46.283 3.086 68.32 10.32A294.1 294.1 0 0 0 16 333.664zm78.32-46c-14.551.033-29.085.968-43.52 2.8V79.984a220.6454 220.6454 0 0 1 47.44-5.28c29.92 0 71.2 6.88 99.84 39.2l.24 199.28c-16.64-10.88-49.12-25.52-104-25.52zm120-173.76c28.64-32 69.92-39.2 99.84-39.2 15.957.047 31.863 1.817 47.44 5.28v210.48a351.8948 351.8948 0 0 0-43.28-2.88c-54.56 0-87.12 14.64-104 25.52v-199.2zm182.32 219.76a294.1581 294.1581 0 0 0-146.96-19.76 208.0083 208.0083 0 0 1 68.64-10.32c16.846.094 33.663 1.404 50.32 3.92 4.368.663 8.447-2.341 9.11-6.709.065-.427.095-.859.09-1.291V98.944h19.12l-.32 234.72z"/>
</svg>